# xmcd CD database file
#
# Track frame offsets:
#	150
#	19087
#	33712
#	46475
#	62487
#	75650
#	89050
#	100675
#	113300
#	125775
#	145337
#	159125
#
# Disc length: 2353 seconds
#
# Revision: 3
# Processed by: cddbd v1.5.2PL0 Copyright (c) Steve Scherf et al.
# Submitted via: CDex 1.70beta2
#
DISCID=96092f0c
DTITLE=Ray Charles - Double Gold [CD2)
DYEAR=1994
DGENRE=Blues
TTITLE0=I can't stop loving you
TTITLE1=You don't know me
TTITLE2=Unchain my heart
TTITLE3=Your cheating my heart
TTITLE4=Take these chains from my heart
TTITLE5=You are my sunshine
TTITLE6=In the heat of the night
TTITLE7=My heart cries for you
TTITLE8=If you were mine
TTITLE9=That lucky old sun
TTITLE10=Don't change on me
TTITLE11=Careless love
EXTD=YEAR: 1994
EXTT0=
EXTT1=
EXTT2=
EXTT3=
EXTT4=
EXTT5=
EXTT6=
EXTT7=
EXTT8=
EXTT9=
EXTT10=
EXTT11=
PLAYORDER=
